<svg xmlns="http://www.w3.org/2000/svg" viewBox="0 0 64 64" role="img" aria-labelledby="dotweave-app-icon-title dotweave-app-icon-description" data-row-starts="14.666667 28 41.333333" data-row-height="8" data-row-bounds="14.666667 49.333333">
  <title id="dotweave-app-icon-title">Dotweave app icon</title>
  <desc id="dotweave-app-icon-description">Three aligned configuration strands woven together on a Tinyrack tile</desc>
  <path fill="#0a0a0a" d="M16 0h32a16 16 0 0 1 16 16v32a16 16 0 0 1-16 16H16A16 16 0 0 1 0 48V16A16 16 0 0 1 16 0Z"/>
  <path fill="#2dd4bf" d="M37 14.667h9.667a2.667 2.667 0 0 1 2.666 2.667V20a2.667 2.667 0 0 1-2.666 2.667H40L30 36H17.333a2.667 2.667 0 0 1-2.666-2.667v-2.666A2.667 2.667 0 0 1 17.333 28H26l11-13.333Z"/>
  <path fill="#fafafa" d="M17.333 14.667H27L37 28h9.667a2.667 2.667 0 0 1 2.666 2.667v2.666A2.667 2.667 0 0 1 46.667 36H33L23 22.667h-5.667A2.667 2.667 0 0 1 14.667 20v-2.666a2.667 2.667 0 0 1 2.666-2.667Z"/>
  <path fill="#fafafa" d="M36 28h10.667a2.667 2.667 0 0 1 2.666 2.667v2.666A2.667 2.667 0 0 1 46.667 36H39L29 49.333H17.333a2.667 2.667 0 0 1-2.666-2.666V44a2.667 2.667 0 0 1 2.666-2.667H25L36 28Z"/>
  <path fill="#2dd4bf" d="M17.333 28H28l10 13.333h8.667A2.667 2.667 0 0 1 49.333 44v2.667a2.667 2.667 0 0 1-2.666 2.666H34L24 36h-6.667a2.667 2.667 0 0 1-2.666-2.667v-2.666A2.667 2.667 0 0 1 17.333 28Z"/>
</svg>
