<svg xmlns="http://www.w3.org/2000/svg" viewBox="0 0 32 32" role="img" aria-labelledby="tinyrack-mark-inverse-title tinyrack-mark-inverse-description">
  <title id="tinyrack-mark-inverse-title">Tinyrack inverse mark</title>
  <desc id="tinyrack-mark-inverse-description">Three stacked server bays with aligned status apertures</desc>
  <path fill="#fafafa" fill-rule="evenodd" d="M5 3h22a2 2 0 0 1 2 2v2a2 2 0 0 1-2 2H5a2 2 0 0 1-2-2V5a2 2 0 0 1 2-2Zm21 3a1.5 1.5 0 1 1-3 0 1.5 1.5 0 0 1 3 0ZM5 13h22a2 2 0 0 1 2 2v2a2 2 0 0 1-2 2H5a2 2 0 0 1-2-2v-2a2 2 0 0 1 2-2Zm21 3a1.5 1.5 0 1 1-3 0 1.5 1.5 0 0 1 3 0ZM5 23h22a2 2 0 0 1 2 2v2a2 2 0 0 1-2 2H5a2 2 0 0 1-2-2v-2a2 2 0 0 1 2-2Zm21 3a1.5 1.5 0 1 1-3 0 1.5 1.5 0 0 1 3 0Z"/>
</svg>
