<svg xmlns="http://www.w3.org/2000/svg" viewBox="0 0 156 38" role="img" aria-labelledby="tinyrack-lockup-inverse-title tinyrack-lockup-inverse-description">
  <title id="tinyrack-lockup-inverse-title">Tinyrack</title>
  <desc id="tinyrack-lockup-inverse-description">Tinyrack inverse rack mark and wordmark</desc>
  <g fill="#fafafa">
    <path fill-rule="evenodd" transform="translate(3 3)" d="M5 3h22a2 2 0 0 1 2 2v2a2 2 0 0 1-2 2H5a2 2 0 0 1-2-2V5a2 2 0 0 1 2-2Zm21 3a1.5 1.5 0 1 1-3 0 1.5 1.5 0 0 1 3 0ZM5 13h22a2 2 0 0 1 2 2v2a2 2 0 0 1-2 2H5a2 2 0 0 1-2-2v-2a2 2 0 0 1 2-2Zm21 3a1.5 1.5 0 1 1-3 0 1.5 1.5 0 0 1 3 0ZM5 23h22a2 2 0 0 1 2 2v2a2 2 0 0 1-2 2H5a2 2 0 0 1-2-2v-2a2 2 0 0 1 2-2Zm21 3a1.5 1.5 0 1 1-3 0 1.5 1.5 0 0 1 3 0Z"/>
    <path transform="translate(0 -6.36)" d="M55.54 13.456v3.276h-5.572V33h-3.696V16.732h-5.544v-3.276H55.54Zm4.564 2.8q-1.092 0-1.596-.518t-.504-1.274v-.56q0-.784.504-1.288t1.596-.504q1.092 0 1.596.504t.504 1.288v.56q0 .756-.504 1.274t-1.596.518ZM61.896 33h-3.584V18.384h3.584V33Zm7.7-9.66V33h-3.584V18.384h3.584v2.436h.14q.448-1.176 1.414-1.974t2.674-.798q2.24 0 3.458 1.498t1.218 4.214V33h-3.584v-8.876q0-1.54-.56-2.338t-1.848-.798q-.728 0-1.4.266t-1.092.784q-.42.518-.42 1.302Zm18.284 6.468 1.008-3.696 2.548-7.728h3.36l-5.88 17.22q-.364 1.036-.868 1.708t-1.302.98q-.798.308-2.002.308h-2.156v-2.856h2.632l.672-2.044-5.236-15.316h3.556l2.548 7.728.952 3.696h.168Zm12.852-5.768V33h-3.584V18.384h3.584v3.024h.14q.196-.784.658-1.47t1.26-1.12q.798-.434 1.946-.434h.784v3.388h-1.12q-1.204 0-2.03.238t-1.232.728q-.406.49-.406 1.302Zm20.16 6.104V33h-1.988q-.812 0-1.442-.378t-.966-1.106q-.252-.476-.308-1.036h-.168q-.364 1.4-1.498 2.128t-2.758.728q-2.24 0-3.444-1.19t-1.204-3.122q0-1.512.742-2.492t2.142-1.484q1.4-.504 3.36-.504h2.492V23.48q0-1.204-.644-1.89t-2.072-.686q-1.26 0-2.03.546t-1.302 1.302l-2.128-1.904q.812-1.26 2.156-2.03t3.556-.77q2.94 0 4.494 1.358t1.554 3.85v6.888h1.456Zm-5.04-1.512V26.7h-2.296q-1.4 0-2.1.462t-.7 1.33v.476q0 .868.588 1.316t1.624.448q.812 0 1.456-.238t1.036-.714q.392-.476.392-1.148Zm13.72 4.704q-3.248 0-4.998-2.072t-1.75-5.6q0-3.5 1.75-5.558t4.998-2.058q2.212 0 3.654.98t2.086 2.716l-2.94 1.316q-.252-.924-.952-1.526t-1.848-.602q-1.484 0-2.24.938t-.756 2.506v2.66q0 1.512.756 2.464t2.24.952q1.26 0 1.974-.658t1.106-1.638l2.744 1.316q-.7 1.932-2.198 2.898t-3.626.966ZM141.752 33h-3.584V12.28h3.584v12.488h.14l1.932-2.632 3.276-3.752h4.06l-5.04 5.656L151.692 33h-4.256l-3.752-6.552-1.932 2.1V33Z"/>
  </g>
</svg>
